<svg width="91" height="91" viewBox="0 0 91 91" fill="none" xmlns="http://www.w3.org/2000/svg">
<path d="M90.5 45.5001C90.5 70.3529 70.3528 90.5001 45.5 90.5001C20.6472 90.5001 0.500031 70.3529 0.500031 45.5001C0.500031 20.6472 20.6472 0.500061 45.5 0.500061C70.3528 0.500061 90.5 20.6472 90.5 45.5001ZM9.50003 45.5001C9.50003 65.3823 25.6178 81.5001 45.5 81.5001C65.3823 81.5001 81.5 65.3823 81.5 45.5001C81.5 25.6178 65.3823 9.50006 45.5 9.50006C25.6178 9.50006 9.50003 25.6178 9.50003 45.5001Z" fill="white" fill-opacity="0.6"/>
<path d="M54.5 22.1L30.2 45.95L54.5 69.8" stroke="white" stroke-opacity="0.6" stroke-width="10" stroke-linecap="round" stroke-linejoin="round"/>
</svg>
