<svg width="80" height="80" viewBox="0 0 80 80" fill="none" xmlns="http://www.w3.org/2000/svg">
<path fill-rule="evenodd" clip-rule="evenodd" d="M63 36.0308L40.5 19L18 36.0308L19.0715 39.2747H20.8572V60H60.1429V39.2747H61.9286L63 36.0308ZM24.4286 56.3956V35.6703L40.5 23.5055L56.5715 35.6703V56.3956H47.6431V45.7826L45.8574 43.9804H35.1431L33.3574 45.7826V56.3956H24.4286ZM36.9288 56.3956H44.0717V47.5848H36.9288V56.3956Z" fill="#24E8A0"/>
<path d="M80 40C80 62.0914 62.0914 80 40 80C17.9086 80 3.05176e-05 62.0914 3.05176e-05 40C3.05176e-05 17.9086 17.9086 0 40 0C62.0914 0 80 17.9086 80 40ZM6.00003 40C6.00003 58.7777 21.2223 74 40 74C58.7777 74 74 58.7777 74 40C74 21.2223 58.7777 6 40 6C21.2223 6 6.00003 21.2223 6.00003 40Z" fill="#24E8A0"/>
</svg>
