<svg width="101" height="118" viewBox="0 0 101 118" fill="none" xmlns="http://www.w3.org/2000/svg">
<path fill-rule="evenodd" clip-rule="evenodd" d="M0.500031 10.5001C0.50003 4.9772 4.97718 0.500053 10.5 0.500053L90.5 0.500057C96.0229 0.500057 100.5 4.97721 100.5 10.5001L100.5 107.5C100.5 113.023 96.0229 117.5 90.5 117.5L10.5 117.5C4.97719 117.5 0.50003 113.023 0.50003 107.5L0.500031 10.5001ZM30.5 20.5C30.5 26.0229 26.0229 30.5 20.5 30.5C14.9772 30.5 10.5 26.0229 10.5 20.5C10.5 14.9772 14.9772 10.5 20.5 10.5C26.0229 10.5 30.5 14.9772 30.5 20.5ZM20.5 60.5C26.0229 60.5 30.5 56.0229 30.5 50.5C30.5 44.9772 26.0229 40.5 20.5 40.5C14.9772 40.5 10.5 44.9772 10.5 50.5C10.5 56.0229 14.9772 60.5 20.5 60.5ZM60.5 20.5001C60.5 26.0229 56.0229 30.5001 50.5 30.5001C44.9772 30.5001 40.5 26.0229 40.5 20.5001C40.5 14.9772 44.9772 10.5001 50.5 10.5001C56.0229 10.5001 60.5 14.9772 60.5 20.5001ZM50.5 60.5001C56.0229 60.5001 60.5 56.0229 60.5 50.5001C60.5 44.9772 56.0229 40.5001 50.5 40.5001C44.9772 40.5001 40.5 44.9772 40.5 50.5001C40.5 56.0229 44.9772 60.5001 50.5 60.5001ZM90.5 20.5C90.5 26.0229 86.0229 30.5 80.5 30.5C74.9772 30.5001 70.5 26.0229 70.5 20.5001C70.5 14.9772 74.9772 10.5001 80.5 10.5C86.0229 10.5 90.5 14.9772 90.5 20.5ZM80.5 60.5001C86.0229 60.5001 90.5 56.0229 90.5 50.5C90.5 44.9772 86.0229 40.5 80.5 40.5C74.9772 40.5001 70.5 44.9772 70.5 50.5001C70.5 56.0229 74.9772 60.5001 80.5 60.5001Z" fill="white" fill-opacity="0.6"/>
<path d="M9.34378 103.5V90.4092H14.9943C15.9659 90.4092 16.8161 90.586 17.5448 90.9397C18.2735 91.2934 18.8402 91.8026 19.2451 92.4674C19.6499 93.1322 19.8523 93.929 19.8523 94.858C19.8523 95.7955 19.6435 96.586 19.2259 97.2295C18.8125 97.8729 18.2309 98.3587 17.4809 98.6869C16.7351 99.015 15.8637 99.179 14.8665 99.179H11.4915V96.4177H14.1506C14.5682 96.4177 14.924 96.3665 15.2181 96.2643C15.5164 96.1577 15.7443 95.9894 15.902 95.7593C16.064 95.5292 16.1449 95.2288 16.1449 94.858C16.1449 94.483 16.064 94.1783 15.902 93.944C15.7443 93.7053 15.5164 93.5306 15.2181 93.4198C14.924 93.3047 14.5682 93.2472 14.1506 93.2472H12.8978V103.5H9.34378ZM17.0142 97.4915L20.287 103.5H16.4262L13.2301 97.4915H17.0142ZM21.3672 103.5V90.4092H30.8019V93.2728H24.9212V95.5228H30.3161V98.3864H24.9212V100.636H30.7763V103.5H21.3672ZM36.144 90.4092L38.8287 99.6393H38.931L41.6156 90.4092H45.6298L41.3088 103.5H36.4508L32.1298 90.4092H36.144ZM46.8907 103.5V90.4092H56.3253V93.2728H50.4446V95.5228H55.8395V98.3864H50.4446V100.636H56.2997V103.5H46.8907ZM58.0879 103.5V90.4092H63.7385C64.7101 90.4092 65.5602 90.586 66.2889 90.9397C67.0176 91.2934 67.5844 91.8026 67.9892 92.4674C68.394 93.1322 68.5964 93.929 68.5964 94.858C68.5964 95.7955 68.3876 96.586 67.97 97.2295C67.5567 97.8729 66.975 98.3587 66.225 98.6869C65.4793 99.015 64.6078 99.179 63.6106 99.179H60.2356V96.4177H62.8947C63.3124 96.4177 63.6682 96.3665 63.9622 96.2643C64.2605 96.1577 64.4885 95.9894 64.6462 95.7593C64.8081 95.5292 64.8891 95.2288 64.8891 94.858C64.8891 94.483 64.8081 94.1783 64.6462 93.944C64.4885 93.7053 64.2605 93.5306 63.9622 93.4198C63.6682 93.3047 63.3124 93.2472 62.8947 93.2472H61.6419V103.5H58.0879ZM65.7584 97.4915L69.0311 103.5H65.1703L61.9743 97.4915H65.7584ZM77.1682 94.5001C77.1341 94.0739 76.9743 93.7415 76.6888 93.5029C76.4075 93.2643 75.9793 93.1449 75.404 93.1449C75.0375 93.1449 74.7371 93.1897 74.5027 93.2792C74.2726 93.3644 74.1021 93.4816 73.9913 93.6307C73.8805 93.7799 73.823 93.9503 73.8187 94.1421C73.8102 94.2998 73.8379 94.4425 73.9018 94.5704C73.97 94.694 74.0766 94.8069 74.2214 94.9092C74.3663 95.0072 74.5517 95.0967 74.7776 95.1776C75.0034 95.2586 75.2719 95.331 75.5829 95.3949L76.6568 95.6251C77.3812 95.7785 78.0013 95.9809 78.5169 96.2323C79.0325 96.4837 79.4544 96.7799 79.7825 97.1208C80.1106 97.4574 80.3514 97.8367 80.5048 98.2586C80.6625 98.6805 80.7435 99.1407 80.7477 99.6393C80.7435 100.5 80.5283 101.229 80.1021 101.825C79.676 102.422 79.0666 102.876 78.274 103.187C77.4856 103.498 76.5375 103.653 75.4295 103.653C74.2918 103.653 73.2989 103.485 72.4508 103.148C71.6071 102.812 70.9508 102.294 70.4821 101.595C70.0176 100.892 69.7832 99.993 69.779 98.8978H73.154C73.1753 99.2984 73.2754 99.635 73.4544 99.9077C73.6334 100.18 73.8848 100.387 74.2087 100.528C74.5368 100.668 74.9267 100.739 75.3784 100.739C75.7577 100.739 76.0751 100.692 76.3308 100.598C76.5865 100.504 76.7804 100.374 76.9125 100.208C77.0446 100.042 77.1128 99.8523 77.117 99.6393C77.1128 99.439 77.0467 99.2643 76.9189 99.1151C76.7953 98.9617 76.5908 98.8253 76.3053 98.706C76.0197 98.5824 75.6341 98.4674 75.1483 98.3609L73.8443 98.0796C72.6852 97.8282 71.7712 97.4084 71.1021 96.8204C70.4374 96.228 70.1071 95.4205 70.1114 94.3978C70.1071 93.5668 70.3287 92.8403 70.7761 92.2181C71.2278 91.5917 71.8521 91.1038 72.649 90.7543C73.4501 90.4049 74.3685 90.2302 75.404 90.2302C76.4608 90.2302 77.3749 90.407 78.1462 90.7607C78.9175 91.1144 79.5119 91.613 79.9295 92.2565C80.3514 92.8957 80.5645 93.6435 80.5687 94.5001H77.1682ZM82.0996 103.5V90.4092H91.5343V93.2728H85.6536V95.5228H91.0485V98.3864H85.6536V100.636H91.5087V103.5H82.0996Z" fill="black"/>
</svg>
