<svg width="153" height="70" viewBox="0 0 153 70" fill="none" xmlns="http://www.w3.org/2000/svg">
<path d="M66.2477 9.60405C69.4003 8.75484 72.4382 7.82045 75.436 6.76258C76.2751 6.46646 77.0413 6.50086 77.8749 6.79178C83.0574 8.60049 88.3184 10.1429 93.712 11.185C96.3826 11.7009 99.0686 12.1558 101.764 12.5153C102.688 12.6386 102.869 12.9798 102.918 13.829C103.271 19.8821 102.083 25.7132 100.481 31.4908C99.9218 33.5086 99.5653 35.5264 99.6429 37.6573C99.7459 40.4832 99.5608 43.3186 99.5546 46.15C99.5522 47.2082 99.18 48.0648 98.2574 48.4795C97.1118 48.9945 96.6153 49.8978 96.0664 50.9471C94.5735 53.8012 92.729 56.4423 90.6393 58.9006C87.1287 63.0302 83.2154 66.6764 78.4278 69.3309C77.1407 70.0446 76.0916 70.0448 74.8193 69.3493C68.8913 66.1088 64.2153 61.5327 60.3679 56.0449C58.9423 54.0115 57.5081 51.9814 56.4969 49.6983C56.2861 49.2224 55.8862 49.0559 55.4923 48.8427C54.259 48.175 53.5317 47.2508 53.6286 45.7381C53.7178 44.3449 53.5422 42.9321 53.666 41.5443C54.0999 36.6778 52.9607 32.0453 51.7238 27.4157C50.5242 22.9259 50.1841 18.3438 50.2838 13.7131C50.2996 12.9831 50.5379 12.6499 51.2783 12.5425C55.6993 11.9007 60.0971 11.1284 64.436 10.0494C65.0118 9.90621 65.5878 9.76381 66.2477 9.60405ZM57.1678 27.7094C55.9851 28.216 55.1361 29.0683 54.6471 30.249C53.959 31.9103 53.9021 33.7449 54.2055 35.3915C54.6052 37.5607 55.6123 39.6174 56.3501 41.7254C56.5326 42.2467 56.7825 42.6579 57.387 42.7798C61.0441 43.5174 64.6866 44.4118 68.4363 44.4638C73.5757 44.535 78.717 44.4548 83.8571 44.4901C87.8767 44.5177 91.7342 43.4996 95.6419 42.7916C96.2735 42.6771 96.5898 42.3046 96.7854 41.7194C97.4279 39.7978 98.1024 37.8868 98.7623 35.971C99.0967 35.0002 99.1991 33.9963 99.1821 32.9755C99.128 29.7497 97.739 27.9217 94.6029 27.2243C90.0617 26.2143 85.4419 25.7273 80.8016 25.518C75.6259 25.2847 70.457 25.4989 65.3146 26.1459C62.6193 26.485 59.8841 26.6427 57.1678 27.7094ZM88.4554 15.6114C84.7897 14.7292 81.1448 13.7727 77.5899 12.505C76.8644 12.2463 76.176 12.2734 75.4455 12.5121C72.2584 13.5536 69.0407 14.4899 65.7798 15.2777C62.8621 15.9826 59.9296 16.6142 56.9693 17.109C56.1589 17.2444 55.6853 17.4146 55.8207 18.4835C56.0492 20.2868 56.3609 22.0672 56.7484 23.8382C56.8371 24.2437 56.9223 24.6552 57.4448 24.7749C58.5942 25.0381 59.7042 25.4302 60.8178 25.9785C61.5067 24.9714 62.1966 24.05 62.7933 23.0718C63.977 21.1316 65.7306 20.221 67.931 19.878C73.3548 19.0327 78.7709 19.0971 84.2123 19.6926C87.0512 20.0033 89.2554 21.1684 90.7115 23.6692C91.0796 24.3014 91.5366 24.882 91.9543 25.4853C92.1574 25.7786 92.4076 26.15 92.7877 25.9182C93.79 25.3068 94.9012 25.0201 96.001 24.68C96.3399 24.5753 96.3798 24.2123 96.4701 23.911C96.9734 22.2305 97.1822 20.5029 97.3381 18.7624C97.4651 17.3448 97.4863 17.3714 96.1215 17.1122C93.6209 16.6372 91.1264 16.1306 88.4554 15.6114ZM81.7976 60.1173C84.9424 57.2299 87.5227 53.9028 89.8382 50.0525C80.8436 50.0525 72.1274 50.0525 63.3353 50.0525C63.9519 51.2987 64.7495 52.4379 65.5822 53.5415C68.3944 57.2684 71.5352 60.6646 75.4774 63.2491C76.1701 63.7032 76.7394 63.7961 77.4697 63.3182C78.934 62.3599 80.3397 61.3301 81.7976 60.1173Z" fill="white"/>
<path d="M21.4461 18.0825C15.8626 17.1121 10.3643 16.1824 4.87383 15.2082C2.44528 14.7773 1.38311 12.8079 0 10.8753C1.60178 10.745 2.87372 11.1558 4.15199 11.3796C14.5911 13.2068 25.0216 15.0833 35.4569 16.9327C39.542 17.6567 43.6299 18.3655 47.723 19.0422C48.4473 19.1619 48.7355 19.4562 48.7637 20.19C48.86 22.6948 48.8869 22.6515 46.3987 22.2329C38.1137 20.839 29.8231 19.4785 21.4461 18.0825Z" fill="white"/>
<path d="M142.993 16.1003C136.818 17.1452 130.732 18.1759 124.645 19.1958C118.556 20.2159 112.464 21.2132 106.377 22.246C104.384 22.5842 104.438 22.6203 104.413 20.5978C104.4 19.5763 104.711 19.1318 105.775 18.9547C112.894 17.7702 120.004 16.5319 127.111 15.2811C132.706 14.2965 138.291 13.2571 143.885 12.2648C146.894 11.7309 149.912 11.2449 153 10.7247C152.995 11.5945 152.379 12.0135 151.986 12.5436C150.72 14.2519 149.1 15.3102 146.904 15.467C145.622 15.5584 144.356 15.8693 142.993 16.1003Z" fill="white"/>
<path d="M7.97524 17.835C13.4616 18.7416 18.8581 19.637 24.2548 20.5312C24.3578 20.5483 24.4632 20.5586 24.5675 20.5594C26.3658 20.5732 27.5782 21.3518 28.1595 23.1242C28.403 23.8668 28.8795 24.533 29.2666 25.2652C28.8358 25.6145 28.42 25.4467 28.0285 25.4048C23.7668 24.9492 19.506 24.4856 15.2446 24.0281C13.755 23.8682 12.2595 23.755 10.7752 23.5573C7.92078 23.177 6.06844 21.2795 4.37407 19.1915C3.77278 18.4505 3.06376 17.7621 2.70654 16.6257C4.50246 17.1508 6.17668 17.5716 7.97524 17.835Z" fill="white"/>
<path d="M141.091 18.5405C144.257 18.0003 147.369 17.6646 150.461 16.5304C150.385 16.8597 150.388 17.0059 150.322 17.1066C148.735 19.5256 146.919 21.726 144.286 23.0774C143.21 23.6299 141.985 23.6592 140.813 23.7641C135.463 24.2428 130.123 24.8158 124.789 25.4419C124.519 25.4736 124.23 25.535 123.855 25.1665C124.584 23.862 125.267 22.4576 126.129 21.1742C126.562 20.5307 127.494 20.7537 128.2 20.6354C132.463 19.9207 136.734 19.2514 141.091 18.5405Z" fill="white"/>
<path d="M132.619 30.7349C128.686 30.7363 124.859 30.7363 121.055 30.7363C121.348 28.7374 123.076 27.2149 125.213 27.0208C129.656 26.6173 134.092 26.1332 138.53 25.6788C140.328 25.4948 142.124 25.3019 143.877 25.1177C144.11 25.4183 143.923 25.5762 143.801 25.7286C141.282 28.876 138.261 31.0328 133.98 30.7185C133.564 30.6879 133.142 30.7269 132.619 30.7349Z" fill="white"/>
<path d="M21.1937 30.737C20.0757 30.7176 19.0624 30.6884 18.049 30.6863C14.0566 30.6784 11.5078 28.3282 9.22998 25.3159C9.86986 25.0031 10.3902 25.2752 10.918 25.3285C15.3266 25.7737 19.7371 26.1983 24.1458 26.6422C25.9497 26.8239 27.7499 27.0429 29.5531 27.2329C29.9256 27.2721 30.2345 27.3926 30.4272 27.7226C31.0064 28.7149 31.5791 29.711 32.2578 30.8844C28.495 31.1149 24.8967 30.7573 21.1937 30.737Z" fill="white"/>
<path d="M127.339 36.6147C123.778 36.4292 120.315 36.2586 116.774 35.8273C117.086 35.018 117.837 34.9275 118.196 34.4503C119.665 32.497 121.702 32.4359 123.904 32.478C128.401 32.5639 132.904 32.5998 137.672 32.2306C136.008 34.3606 134.431 36.1484 131.826 36.625C130.358 36.8936 128.9 36.5846 127.339 36.6147Z" fill="white"/>
<path d="M15.9005 32.4345C20.3535 32.4212 24.7793 32.5442 29.2024 32.4789C31.4341 32.446 33.4978 32.5104 35.0335 34.445C35.3818 34.8837 35.9392 35.1564 36.3666 35.4799C36.1996 35.9492 35.8892 35.9371 35.6262 35.9537C31.417 36.2184 27.2097 36.5314 22.9968 36.7123C19.7586 36.8514 17.6343 34.9363 15.9005 32.4345Z" fill="white"/>
<path d="M45.5712 47.0949C44.6625 47.5559 43.8384 48.0187 42.9785 48.4008C39.9864 49.7308 37.7576 49.2738 35.3831 46.8517C35.7033 46.3821 36.2719 46.3639 36.72 46.1548C39.5358 44.8412 42.3777 43.5826 45.176 42.2332C46.0114 41.8303 46.7291 41.8005 47.5559 42.1766C48.66 42.6789 49.8002 43.1017 51.1444 43.6478C49.315 45.0173 47.4206 45.9521 45.5712 47.0949Z" fill="white"/>
<path d="M115.102 45.668C115.975 46.0224 116.774 46.3473 117.587 46.6782C116.31 48.5901 113.443 49.6513 111.38 48.8888C108.156 47.6976 105.32 45.7576 102.384 44.0165C102.306 43.9701 102.27 43.8518 102.145 43.6608C103.582 42.8364 105.069 42.2053 106.662 41.8661C106.976 41.7993 107.38 42.086 107.725 42.2456C110.162 43.3713 112.594 44.5064 115.102 45.668Z" fill="white"/>
<path d="M130.73 39.0397C130.482 39.2435 130.265 39.3709 130.099 39.5463C128.061 41.7026 125.61 42.089 122.815 41.4142C119.633 40.6462 116.42 40.01 113.222 39.3116C112.991 39.2611 112.745 39.2077 112.644 38.9705C114.651 37.1853 116.973 36.9687 119.531 37.325C123.12 37.8249 126.737 38.1338 130.367 38.2064C130.601 38.2111 130.86 38.1553 131.054 38.3679C131.174 38.665 130.932 38.8051 130.73 39.0397Z" fill="white"/>
<path d="M23.735 40.1061C23.1492 39.5654 22.4863 39.2023 22.1525 38.5187C22.3862 38.093 22.7769 38.2265 23.0968 38.2193C27.1829 38.1278 31.2283 37.5648 35.2883 37.1753C36.4952 37.0595 37.6369 37.0692 38.679 37.854C39.2197 38.2613 39.8814 38.5079 40.7557 38.9677C39.1262 39.3594 37.7612 39.6722 36.4044 40.017C33.866 40.6621 31.2915 41.1308 28.7184 41.6038C26.8438 41.9485 25.1898 41.4697 23.735 40.1061Z" fill="white"/>
<path d="M30.0686 43.0353C33.411 42.1192 36.685 41.2596 39.9351 40.3177C41.8009 39.7769 43.4828 40.163 45.1485 40.9621C45.0558 41.2726 44.8506 41.3429 44.6621 41.4269C41.5684 42.8054 38.476 44.1889 35.2887 45.3413C33.6549 45.9321 30.8191 45.031 29.7704 43.6621C29.4887 43.2944 29.7098 43.183 30.0686 43.0353Z" fill="white"/>
<path d="M111.001 42.6641C109.858 42.1757 108.789 41.718 107.72 41.2602C109.26 40.5369 110.647 39.7603 112.353 40.241C115.874 41.2332 119.423 42.1261 122.96 43.0655C123.123 43.1089 123.272 43.207 123.431 43.2813C122.394 45.0302 119.509 46.0398 117.582 45.2993C115.402 44.461 113.243 43.5654 111.001 42.6641Z" fill="white"/>
<path d="M51.482 44.9817C51.9086 44.7958 52.3337 44.7008 52.2719 45.2627C52.0648 47.1477 52.6879 48.6667 54.2446 49.874C50.4358 50.2935 46.741 50.1915 43.0465 50.139C43.0196 50.0396 42.9926 49.9402 42.9657 49.8407C45.781 48.2333 48.5963 46.626 51.482 44.9817Z" fill="white"/>
<path d="M103.193 45.8256C105.551 47.0962 107.688 48.5898 110.004 49.8829C106.313 50.2767 102.655 50.2689 98.8846 49.9431C100.916 48.7448 101.112 46.8692 100.92 44.8535C101.919 44.8388 102.457 45.4651 103.193 45.8256Z" fill="white"/>
<path d="M43.904 65.5566C43.613 66.0269 43.5582 66.5508 43.1216 66.9126C42.4104 66.2816 42.1457 65.365 41.494 64.7271C40.862 64.1085 39.9342 63.9893 39.1584 63.2377C41.2138 62.6146 42.4278 61.2627 43.1125 59.2819C43.7368 61.2247 44.8603 62.5658 47.0141 63.2569C45.6996 63.9753 44.57 64.4231 43.904 65.5566Z" fill="white"/>
<path d="M110.063 64.774C109.343 65.3576 109.169 66.2418 108.489 67.0115C107.852 65.151 106.488 64.1482 104.794 63.3529C106.769 62.6636 107.947 61.3427 108.515 59.3346C109.297 61.1842 110.503 62.4906 112.452 63.2961C111.606 63.9158 110.714 64.1004 110.063 64.774Z" fill="white"/>
<path d="M35.4889 3.26585C36.9581 2.74962 37.7528 1.63127 38.504 0C39.1214 1.92416 40.3588 2.82103 42.1459 3.51345C40.2937 4.1247 39.0333 4.97701 38.569 6.77084C37.8807 5.21047 36.9538 4.14802 35.4382 3.68951C35.2264 3.62543 35.2453 3.43522 35.4889 3.26585Z" fill="white"/>
<path d="M42.6235 10.0879C42.0454 9.16589 41.0878 8.94398 39.8806 8.4012C41.8178 7.87422 42.8733 6.78562 43.4282 5.07898C44.1124 6.6671 45.2036 7.73691 46.8119 8.39404C45.1788 8.91613 44.188 10.0015 43.6316 11.5094C43.0036 11.1493 42.9696 10.5595 42.6235 10.0879Z" fill="white"/>
<path d="M111.499 7.53482C112.077 7.83982 112.596 8.09911 113.396 8.49958C111.526 8.85316 110.562 9.95465 109.902 11.8054C109.089 10.0986 108.235 8.80537 106.446 8.40228C108.037 7.73084 109.282 6.86005 109.804 5.14661C110.395 5.99042 110.671 6.91746 111.499 7.53482Z" fill="white"/>
<path d="M115.806 1.73898C116.376 2.62479 117.291 2.93476 118.335 3.50881C116.703 4.13591 115.44 4.89294 114.975 6.62575C114.264 5.09353 113.2 4.12004 111.422 3.48417C113.21 2.8386 114.316 1.86571 114.87 0.148071C115.249 0.798208 115.505 1.2384 115.806 1.73898Z" fill="white"/>
<path d="M46.7204 25.2703C42.485 25.2148 38.5658 24.055 34.4408 22.6744C35.3212 22.2386 35.952 22.5455 36.5567 22.6427C39.7904 23.1627 43.0697 23.4742 46.1666 24.6517C46.6612 24.8398 46.6641 24.8321 46.7204 25.2703Z" fill="white"/>
<path d="M115.794 23.5426C112.967 24.3626 110.188 25.0012 107.336 25.2666C106.97 25.3007 106.572 25.3904 105.963 25.0063C110.123 23.3963 114.31 22.9017 118.517 22.4205C117.773 23.1277 116.744 23.1354 115.794 23.5426Z" fill="white"/>
<path d="M46.799 30.958C44.556 30.8057 42.4234 30.5832 40.0216 30.1576C40.8853 29.5966 41.5934 29.6668 42.2231 29.6347C43.932 29.5478 45.6471 29.5737 47.3597 29.5727C47.6335 29.5726 47.9152 29.6392 48.1789 29.721C48.4982 29.8201 48.7444 30.0243 48.7077 30.4037C48.6707 30.7871 48.3977 30.932 48.0527 30.9479C47.6689 30.9655 47.2839 30.9564 46.799 30.958Z" fill="white"/>
<path d="M112.124 30.2617C109.915 30.5863 107.781 30.869 105.631 31.0139C105.11 31.0489 104.46 31.1837 104.391 30.4668C104.325 29.7791 105.021 29.6397 105.505 29.6241C107.888 29.5471 110.282 29.3692 112.651 29.8302C112.631 30.1873 112.366 30.1499 112.124 30.2617Z" fill="white"/>
<path d="M107.387 35.642C107.629 35.6908 107.824 35.6798 107.875 36.0224C107.052 36.3367 106.148 36.2551 105.29 36.3631C104.432 36.471 103.553 36.4157 102.684 36.409C102.256 36.4057 101.77 36.351 101.792 35.7833C101.81 35.3056 102.261 35.2099 102.648 35.1991C104.217 35.1555 105.768 35.3299 107.387 35.642Z" fill="white"/>
<path d="M50.4421 36.4007C48.569 36.4287 46.7929 36.3893 45.0348 35.947C45.9287 35.4525 46.9257 35.4337 47.8768 35.2882C48.6938 35.1632 49.5419 35.2275 50.3761 35.2336C50.7679 35.2364 51.2028 35.3081 51.235 35.7974C51.2628 36.2212 50.9214 36.3745 50.4421 36.4007Z" fill="white"/>
<path d="M88.5491 42.4391C87.6811 43.3614 86.6012 43.5144 85.5095 43.5179C79.3935 43.5377 73.2774 43.5372 67.1613 43.5239C65.9526 43.5213 64.9394 43.105 64.2003 42.0511C62.9952 40.3327 61.7288 38.6539 59.2014 38.425C60.0431 37.4974 60.9225 37.2414 61.7195 36.858C64.0139 35.7541 66.4755 34.9979 68.6017 33.5448C68.9436 33.3111 69.3289 33.3304 69.7132 33.3304C74.2915 33.3301 78.8698 33.3282 83.4481 33.332C83.8276 33.3323 84.2381 33.257 84.5634 33.5178C86.5428 35.1046 88.9978 35.7001 91.2376 36.7442C92.0987 37.1455 93.011 37.481 93.8539 38.2616C92.7076 38.7436 91.5943 38.9202 90.8524 39.7624C90.0912 40.6266 89.353 41.5113 88.5491 42.4391ZM81.521 37.3739C76.2808 37.3387 71.0406 37.3028 65.8004 37.2693C65.1575 37.2651 64.5119 37.2643 63.8129 37.8783C72.4461 37.8783 80.8687 37.8783 89.3316 37.8783C89.1742 37.5131 88.876 37.4647 88.6266 37.4215C86.3318 37.0238 84.0287 37.4452 81.521 37.3739ZM85.3106 39.268C78.4969 39.0198 71.6885 39.1894 64.881 39.4214C65.6362 40.0051 87.7555 39.9757 88.6038 39.4028C87.4981 39.1652 86.4994 39.3176 85.3106 39.268ZM66.3538 41.4365C66.533 41.8669 66.9119 41.9295 67.3055 41.9296C73.4598 41.9312 79.6142 41.9305 85.7685 41.9221C86.2055 41.9215 86.6443 41.8591 86.8565 41.2305C86.4337 41.2305 86.1229 41.2304 85.8121 41.2305C79.7277 41.2334 73.6432 41.2348 67.5588 41.2426C67.1781 41.2431 66.7976 41.2936 66.3538 41.4365ZM74.3891 35.357C72.677 35.3558 70.9648 35.3537 69.2526 35.3538C68.8127 35.3538 68.3569 35.3267 68.0822 35.9645C73.8694 35.9645 79.5684 35.9645 85.316 35.9645C84.8962 35.3592 84.3148 35.3513 83.719 35.3524C80.679 35.3582 77.639 35.3564 74.3891 35.357Z" fill="white"/>
<path d="M92.1561 33.8934C90.7529 33.826 89.1847 33.3874 88.4193 32.8291C90.1933 31.5679 91.7527 30.0552 93.8212 29.3202C94.9309 28.9259 95.9098 29.5694 96.3473 30.883C96.7184 31.9968 96.1089 33.2016 94.9437 33.6643C94.07 34.0112 93.1555 33.8691 92.1561 33.8934ZM95.0077 32.044C95.2713 31.6934 95.194 31.3925 94.8481 31.1648C94.5348 30.9587 94.2504 31.0736 94.0156 31.3218C93.8327 31.5152 93.7752 31.7633 93.9181 31.989C94.1754 32.3953 94.5302 32.3732 95.0077 32.044ZM92.5162 32.5409C92.7865 32.2431 92.7825 31.9737 92.3859 31.8194C92.1818 31.74 91.933 31.8212 91.8763 32.0486C91.7729 32.4633 92.0373 32.5959 92.5162 32.5409Z" fill="white"/>
<path d="M62.4907 31.1285C63.1747 31.808 64.047 32.1623 64.6561 33.0135C62.5725 33.8584 60.5081 34.2355 58.3937 33.7201C56.9696 33.373 56.4039 31.9622 56.9746 30.6516C57.5652 29.2953 58.6603 28.9086 60.0446 29.5917C60.8884 30.008 61.7045 30.4757 62.4907 31.1285ZM59.2469 31.28C58.7751 31.0624 58.3359 31.0489 58.1982 31.6505C58.1038 32.0633 58.3908 32.3344 58.7974 32.2821C59.2956 32.2179 59.6649 31.98 59.2469 31.28ZM60.8369 31.8211C60.5235 31.9638 60.2691 32.1676 60.5296 32.5214C60.7385 32.805 61.0455 32.7146 61.2381 32.4858C61.5318 32.1369 61.3206 31.9332 60.8369 31.8211Z" fill="white"/>
</svg>
