<svg width="49" height="44" viewBox="0 0 49 44" fill="none" xmlns="http://www.w3.org/2000/svg">
    <path
        d="M2 7.00001C2 8.3261 2.52679 9.59787 3.46447 10.5356C4.40215 11.4732 5.67393 12 7.00001 12C8.3261 12 9.59787 11.4732 10.5356 10.5356C11.4732 9.59787 12 8.3261 12 7.00001C12 5.67393 11.4732 4.40215 10.5356 3.46447C9.59787 2.52679 8.3261 2 7.00001 2C5.67393 2 4.40215 2.52679 3.46447 3.46447C2.52679 4.40215 2 5.67393 2 7.00001Z"
        stroke-width="3" stroke-linecap="round" stroke-linejoin="round" />
    <path
        d="M19.5 7.00001C19.5 8.3261 20.0268 9.59787 20.9645 10.5356C21.9022 11.4732 23.1739 12 24.5 12C25.8261 12 27.0979 11.4732 28.0356 10.5356C28.9732 9.59787 29.5 8.3261 29.5 7.00001C29.5 5.67393 28.9732 4.40215 28.0356 3.46447C27.0979 2.52679 25.8261 2 24.5 2C23.1739 2 21.9022 2.52679 20.9645 3.46447C20.0268 4.40215 19.5 5.67393 19.5 7.00001Z"
        stroke-width="3" stroke-linecap="round" stroke-linejoin="round" />
    <path
        d="M37 7.00001C37 8.3261 37.5268 9.59787 38.4645 10.5356C39.4022 11.4732 40.6739 12 42 12C43.3261 12 44.5979 11.4732 45.5356 10.5356C46.4732 9.59787 47 8.3261 47 7.00001C47 5.67393 46.4732 4.40215 45.5356 3.46447C44.5979 2.52679 43.3261 2 42 2C40.6739 2 39.4022 2.52679 38.4645 3.46447C37.5268 4.40215 37 5.67393 37 7.00001Z"
        stroke-width="3" stroke-linecap="round" stroke-linejoin="round" />
    <path
        d="M2 37.0001C2 38.3262 2.52679 39.5979 3.46447 40.5356C4.40215 41.4733 5.67393 42.0001 7.00001 42.0001C8.3261 42.0001 9.59787 41.4733 10.5356 40.5356C11.4732 39.5979 12 38.3262 12 37.0001C12 35.674 11.4732 34.4022 10.5356 33.4645C9.59787 32.5268 8.3261 32.0001 7.00001 32.0001C5.67393 32.0001 4.40215 32.5268 3.46447 33.4645C2.52679 34.4022 2 35.674 2 37.0001Z"
        stroke-width="3" stroke-linecap="round" stroke-linejoin="round" />
    <path
        d="M19.5 37.0001C19.5 38.3262 20.0268 39.5979 20.9645 40.5356C21.9022 41.4733 23.1739 42.0001 24.5 42.0001C25.8261 42.0001 27.0979 41.4733 28.0356 40.5356C28.9732 39.5979 29.5 38.3262 29.5 37.0001C29.5 35.674 28.9732 34.4022 28.0356 33.4645C27.0979 32.5268 25.8261 32.0001 24.5 32.0001C23.1739 32.0001 21.9022 32.5268 20.9645 33.4645C20.0268 34.4022 19.5 35.674 19.5 37.0001Z"
        stroke-width="3" stroke-linecap="round" stroke-linejoin="round" />
    <path d="M7 12.0001V32.0001" stroke-width="3" stroke-linecap="round" stroke-linejoin="round" />
    <path d="M24.5 12.0001V32.0001" stroke-width="3" stroke-linecap="round" stroke-linejoin="round" />
    <path
        d="M42.0001 12.0001V17.0001C42.0001 18.3262 41.4733 19.5979 40.5356 20.5356C39.5979 21.4733 38.3262 22.0001 37.0001 22.0001H7"
        stroke-width="3" stroke-linecap="round" stroke-linejoin="round" />
</svg>