<svg width="103" height="170" viewBox="0 0 103 170" fill="none" xmlns="http://www.w3.org/2000/svg">
<path fill-rule="evenodd" clip-rule="evenodd" d="M0.500031 10.5001C0.50003 4.97722 4.97718 0.500061 10.5 0.500061L92.5 0.500057C98.0229 0.500057 102.5 4.97721 102.5 10.5001L102.5 159.5C102.5 165.023 98.0229 169.5 92.5 169.5L10.5 169.5C4.97718 169.5 0.50003 165.023 0.50003 159.5L0.500031 10.5001ZM30.5 20.5001C30.5 26.0229 26.0229 30.5001 20.5 30.5001C14.9772 30.5001 10.5 26.0229 10.5 20.5001C10.5 14.9772 14.9772 10.5001 20.5 10.5001C26.0229 10.5001 30.5 14.9772 30.5 20.5001ZM20.5 60.5001C26.0229 60.5001 30.5 56.0229 30.5 50.5001C30.5 44.9772 26.0229 40.5001 20.5 40.5001C14.9772 40.5001 10.5 44.9772 10.5 50.5001C10.5 56.0229 14.9772 60.5001 20.5 60.5001ZM30.5 80.5001C30.5 86.0229 26.0229 90.5001 20.5 90.5001C14.9772 90.5001 10.5 86.0229 10.5 80.5001C10.5 74.9772 14.9772 70.5001 20.5 70.5001C26.0229 70.5001 30.5 74.9772 30.5 80.5001ZM20.5 120.5C26.0229 120.5 30.5 116.023 30.5 110.5C30.5 104.977 26.0229 100.5 20.5 100.5C14.9772 100.5 10.5 104.977 10.5 110.5C10.5 116.023 14.9772 120.5 20.5 120.5ZM61.5 20.5001C61.5 26.0229 57.0229 30.5001 51.5 30.5001C45.9772 30.5001 41.5 26.0229 41.5 20.5001C41.5 14.9772 45.9772 10.5001 51.5 10.5001C57.0229 10.5001 61.5 14.9772 61.5 20.5001ZM51.5 60.5001C57.0229 60.5001 61.5 56.0229 61.5 50.5001C61.5 44.9772 57.0229 40.5001 51.5 40.5001C45.9772 40.5001 41.5 44.9772 41.5 50.5001C41.5 56.0229 45.9772 60.5001 51.5 60.5001ZM61.5 80.5001C61.5 86.0229 57.0229 90.5001 51.5 90.5001C45.9772 90.5001 41.5 86.0229 41.5 80.5001C41.5 74.9772 45.9772 70.5001 51.5 70.5001C57.0229 70.5001 61.5 74.9772 61.5 80.5001ZM51.5 120.5C57.0229 120.5 61.5 116.023 61.5 110.5C61.5 104.977 57.0229 100.5 51.5 100.5C45.9772 100.5 41.5 104.977 41.5 110.5C41.5 116.023 45.9772 120.5 51.5 120.5ZM92.5 20.5001C92.5 26.0229 88.0229 30.5001 82.5 30.5001C76.9772 30.5001 72.5 26.0229 72.5 20.5001C72.5 14.9772 76.9772 10.5001 82.5 10.5001C88.0229 10.5001 92.5 14.9772 92.5 20.5001ZM82.5001 60.5C88.0229 60.5 92.5001 56.0229 92.5001 50.5C92.5001 44.9772 88.0229 40.5001 82.5001 40.5001C76.9772 40.5001 72.5001 44.9772 72.5001 50.5001C72.5001 56.0229 76.9772 60.5001 82.5001 60.5ZM92.5001 80.5C92.5001 86.0229 88.0229 90.5 82.5001 90.5C76.9772 90.5001 72.5001 86.0229 72.5001 80.5001C72.5001 74.9772 76.9772 70.5001 82.5001 70.5C88.0229 70.5 92.5001 74.9772 92.5001 80.5ZM82.5001 120.5C88.0229 120.5 92.5001 116.023 92.5001 110.5C92.5001 104.977 88.0229 100.5 82.5001 100.5C76.9772 100.5 72.5001 104.977 72.5001 110.5C72.5001 116.023 76.9772 120.5 82.5001 120.5Z" fill="white" fill-opacity="0.6"/>
<path d="M40.8452 146.73C40.7898 146.504 40.7024 146.306 40.5831 146.136C40.4638 145.961 40.3147 145.814 40.1357 145.695C39.961 145.571 39.7564 145.479 39.522 145.42C39.2919 145.356 39.0384 145.324 38.7614 145.324C38.1648 145.324 37.6556 145.467 37.2337 145.752C36.8161 146.038 36.4965 146.449 36.2749 146.986C36.0576 147.523 35.9489 148.171 35.9489 148.929C35.9489 149.696 36.0533 150.352 36.2621 150.898C36.4709 151.443 36.782 151.861 37.1953 152.151C37.6087 152.44 38.1222 152.585 38.7358 152.585C39.277 152.585 39.7266 152.506 40.0845 152.349C40.4468 152.191 40.7174 151.967 40.8963 151.678C41.0753 151.388 41.1648 151.047 41.1648 150.655L41.7784 150.719H38.787V148.188H44.5909V150.003C44.5909 151.196 44.3374 152.217 43.8303 153.065C43.3274 153.908 42.6328 154.556 41.7465 155.008C40.8644 155.455 39.8523 155.679 38.7103 155.679C37.4361 155.679 36.3175 155.408 35.3544 154.867C34.3914 154.326 33.6392 153.555 33.098 152.553C32.5611 151.552 32.2926 150.361 32.2926 148.98C32.2926 147.898 32.4567 146.939 32.7848 146.104C33.1172 145.269 33.5774 144.563 34.1655 143.988C34.7536 143.408 35.4333 142.972 36.2046 142.678C36.9759 142.379 37.8026 142.23 38.6847 142.23C39.4603 142.23 40.1804 142.341 40.8452 142.563C41.5142 142.78 42.1044 143.091 42.6158 143.496C43.1314 143.896 43.5469 144.372 43.8622 144.921C44.1776 145.471 44.3693 146.074 44.4375 146.73H40.8452ZM49.2443 155.5H45.4091L49.7301 142.409H54.5881L58.9091 155.5H55.0739L52.2103 146.014H52.108L49.2443 155.5ZM48.5284 150.335H55.7387V152.994H48.5284V150.335ZM66.717 146.5C66.6829 146.074 66.5231 145.742 66.2376 145.503C65.9564 145.264 65.5281 145.145 64.9528 145.145C64.5863 145.145 64.2859 145.19 64.0515 145.279C63.8214 145.364 63.651 145.482 63.5402 145.631C63.4294 145.78 63.3718 145.95 63.3676 146.142C63.3591 146.3 63.3867 146.443 63.4507 146.57C63.5189 146.694 63.6254 146.807 63.7703 146.909C63.9152 147.007 64.1005 147.097 64.3264 147.178C64.5522 147.259 64.8207 147.331 65.1318 147.395L66.2056 147.625C66.9301 147.778 67.5501 147.981 68.0657 148.232C68.5814 148.484 69.0032 148.78 69.3314 149.121C69.6595 149.457 69.9002 149.837 70.0537 150.259C70.2113 150.68 70.2923 151.141 70.2966 151.639C70.2923 152.5 70.0771 153.229 69.651 153.825C69.2248 154.422 68.6154 154.876 67.8228 155.187C67.0345 155.498 66.0863 155.653 64.9784 155.653C63.8406 155.653 62.8477 155.485 61.9997 155.148C61.1559 154.812 60.4997 154.294 60.0309 153.595C59.5664 152.892 59.3321 151.993 59.3278 150.898H62.7028C62.7241 151.298 62.8242 151.635 63.0032 151.908C63.1822 152.18 63.4336 152.387 63.7575 152.528C64.0856 152.668 64.4755 152.739 64.9272 152.739C65.3065 152.739 65.624 152.692 65.8796 152.598C66.1353 152.504 66.3292 152.374 66.4613 152.208C66.5934 152.042 66.6616 151.852 66.6659 151.639C66.6616 151.439 66.5956 151.264 66.4677 151.115C66.3441 150.962 66.1396 150.825 65.8541 150.706C65.5686 150.582 65.1829 150.467 64.6971 150.361L63.3931 150.08C62.2341 149.828 61.32 149.408 60.651 148.82C59.9862 148.228 59.6559 147.421 59.6602 146.398C59.6559 145.567 59.8775 144.84 60.325 144.218C60.7767 143.592 61.401 143.104 62.1978 142.754C62.999 142.405 63.9173 142.23 64.9528 142.23C66.0096 142.23 66.9237 142.407 67.695 142.761C68.4663 143.114 69.0608 143.613 69.4784 144.256C69.9002 144.896 70.1133 145.644 70.1176 146.5H66.717Z" fill="black"/>
</svg>
