<svg width="91" height="91" viewBox="0 0 91 91" fill="none" xmlns="http://www.w3.org/2000/svg">
<path d="M0.500031 45.5001C0.500031 70.3529 20.6472 90.5001 45.5 90.5001C70.3528 90.5001 90.5 70.3529 90.5 45.5001C90.5 20.6472 70.3528 0.500061 45.5 0.500061C20.6472 0.500061 0.500031 20.6472 0.500031 45.5001ZM81.5 45.5001C81.5 65.3823 65.3823 81.5001 45.5 81.5001C25.6178 81.5001 9.50003 65.3823 9.50003 45.5001C9.50003 25.6178 25.6178 9.50006 45.5 9.50006C65.3823 9.50006 81.5 25.6178 81.5 45.5001Z" fill="white" fill-opacity="0.6"/>
<path d="M36.5 22.1L60.8 45.95L36.5 69.8" stroke="white" stroke-opacity="0.6" stroke-width="10" stroke-linecap="round" stroke-linejoin="round"/>
</svg>
