<svg width="42" height="45" viewBox="0 0 42 45" fill="none" xmlns="http://www.w3.org/2000/svg">
<path d="M35 13.9484H32.6533C31.8632 13.9484 31.2589 13.9289 30.6603 14.5542C30.1384 15.099 29.9315 15.7204 29.478 16.5514L28.7789 17.8171L28.7882 17.7999C28.7061 17.9501 28.6109 18.0527 28.5147 18.1195C28.418 18.1851 28.3236 18.2151 28.2262 18.2151H23.3761C23.4303 18.1017 23.489 17.9899 23.556 17.8839L25.1115 15.4197C27.4485 15.2557 29.2986 14.2 30.5751 12.7891C31.2284 12.0664 31.7344 11.2532 32.0829 10.4101C32.43 9.56756 32.6245 8.6934 32.6259 7.83531C32.6259 6.55048 32.6259 5.2668 32.6259 4.3034C32.6259 3.82198 32.6259 3.4206 32.6259 3.13959C32.6259 2.85915 32.6259 2.69901 32.6259 2.69851V1.6378H28.4683V0H13.656V1.6378H9.37366V2.69858C9.37366 2.69858 9.37366 5.26695 9.37366 7.83545C9.37497 8.69347 9.56949 9.5677 9.91665 10.4102C10.4398 11.6737 11.3154 12.8756 12.5162 13.7941C13.7086 14.7058 15.2233 15.3301 17.0196 15.4302L18.5683 17.8841C18.6354 17.99 18.6941 18.1018 18.7484 18.2153H13.7734C13.676 18.2153 13.5815 18.1853 13.4849 18.1196C13.3888 18.0528 13.2935 17.9503 13.2115 17.8L12.5215 16.5515C12.0681 15.7204 11.8612 15.0991 11.3393 14.5543C10.7407 13.9289 10.1368 13.9485 9.34588 13.9485H7L7.92635 16.6891L7 19.3963C7 19.3963 10.0146 19.3963 10.0411 19.3963C10.7019 19.3963 11.0341 20.4 11.293 20.8941C11.8955 22.0442 12.0697 22.6362 12.5449 23.1188C13.1708 23.7539 13.5373 23.663 14.353 23.6624H19.0933V24.7301L15.4686 26.312V30H26.6558V29.1028V26.3121L23.0311 24.7301V23.6625H27.6465C28.4617 23.6631 28.8287 23.754 29.4551 23.1189C29.9298 22.6363 30.1039 22.0443 30.7065 20.8942C30.9655 20.4001 31.2977 19.3964 31.958 19.3964C31.9849 19.3964 34.9999 19.3964 34.9999 19.3964L34.0727 16.6891L35 13.9484ZM28.4683 3.75937H31.0008C31.0008 4.74533 31.0008 6.28975 31.0008 7.83545C31.0021 8.26046 30.8962 8.8162 30.6528 9.40357C30.2893 10.2852 29.6245 11.2291 28.6624 11.9634C28.0916 12.3987 27.4163 12.7627 26.6355 13.0046L26.9487 12.5087C27.9306 10.9533 28.4692 9.02175 28.4683 7.0304V3.75937ZM12.4743 11.1692C11.9652 10.6078 11.5894 9.991 11.3468 9.40357C11.1038 8.8162 10.9974 8.26046 10.9992 7.83545C10.9992 6.55063 10.9992 5.26695 10.9992 4.30354C10.9992 4.10778 10.9992 3.92579 10.9992 3.75937H13.656V7.0304C13.6551 9.02175 14.1938 10.9533 15.1757 12.5087L15.5171 13.0489C14.2246 12.6815 13.2114 11.9824 12.4743 11.1692ZM25.2808 27.6043V28.2051H16.8431V27.6043L20.4682 26.023V23.6625H21.6562V26.023L25.2808 27.6043ZM22.4947 16.7426C22.215 17.1855 22.002 17.6847 21.8595 18.2152H20.2644C20.1224 17.6847 19.9089 17.1855 19.6301 16.7426L16.237 11.3673C15.4532 10.124 15.031 8.59902 15.031 7.03033V1.79494H27.0933V7.03033C27.0933 8.59902 26.6711 10.124 25.8869 11.3673L22.4947 16.7426Z" fill="white"/>
<path d="M23.0289 6.53916L21.7109 6.46141L21.2464 4.84895C21.208 4.7148 21.1096 4.62549 20.9998 4.62549C20.8899 4.62549 20.7915 4.71473 20.7527 4.84895L20.2887 6.46141L18.971 6.53916C18.8608 6.54615 18.7659 6.64054 18.7315 6.77705C18.6976 6.91348 18.7324 7.0632 18.818 7.15251L19.8498 8.22715L19.4986 9.88801C19.4696 10.0257 19.5092 10.1736 19.5979 10.2577C19.687 10.3424 19.8065 10.3452 19.8983 10.2669L20.9998 9.31792L22.1012 10.2669C22.193 10.3458 22.3121 10.3424 22.4017 10.2577C22.4903 10.1736 22.5296 10.0257 22.5009 9.88801L22.1498 8.22715L23.1812 7.15251C23.2677 7.06327 23.3016 6.91348 23.268 6.77705C23.234 6.64054 23.1388 6.54608 23.0289 6.53916Z" fill="white"/>
<path d="M5.26705 36C5.24432 35.7159 5.13778 35.4943 4.94744 35.3352C4.75994 35.1761 4.47443 35.0966 4.09091 35.0966C3.84659 35.0966 3.64631 35.1264 3.49006 35.1861C3.33665 35.2429 3.22301 35.321 3.14915 35.4205C3.07528 35.5199 3.03693 35.6335 3.03409 35.7614C3.02841 35.8665 3.04688 35.9616 3.08949 36.0469C3.13494 36.1293 3.20597 36.2045 3.30256 36.2727C3.39915 36.3381 3.52273 36.3977 3.6733 36.4517C3.82386 36.5057 4.00284 36.554 4.21023 36.5966L4.92614 36.75C5.40909 36.8523 5.82244 36.9872 6.16619 37.1548C6.50994 37.3224 6.79119 37.5199 7.00994 37.7472C7.22869 37.9716 7.3892 38.2244 7.49148 38.5057C7.59659 38.7869 7.65057 39.0937 7.65341 39.4261C7.65057 40 7.5071 40.4858 7.22301 40.8835C6.93892 41.2812 6.53267 41.5838 6.00426 41.7912C5.47869 41.9986 4.84659 42.1023 4.10795 42.1023C3.34943 42.1023 2.6875 41.9901 2.12216 41.7656C1.55966 41.5412 1.12216 41.196 0.809659 40.7301C0.5 40.2614 0.34375 39.6619 0.340909 38.9318H2.59091C2.60511 39.1989 2.67188 39.4233 2.79119 39.6051C2.91051 39.7869 3.07813 39.9247 3.29403 40.0185C3.51278 40.1122 3.77273 40.1591 4.07386 40.1591C4.3267 40.1591 4.53835 40.1278 4.70881 40.0653C4.87926 40.0028 5.00852 39.9162 5.09659 39.8054C5.18466 39.6946 5.23011 39.5682 5.23295 39.4261C5.23011 39.2926 5.18608 39.1761 5.10085 39.0767C5.01847 38.9744 4.8821 38.8835 4.69176 38.804C4.50142 38.7216 4.24432 38.6449 3.92045 38.5739L3.05114 38.3864C2.27841 38.2187 1.66903 37.9389 1.22301 37.5469C0.77983 37.152 0.559659 36.6136 0.5625 35.9318C0.559659 35.3778 0.707386 34.8935 1.00568 34.4787C1.30682 34.0611 1.72301 33.7358 2.25426 33.5028C2.78835 33.2699 3.40057 33.1534 4.09091 33.1534C4.79545 33.1534 5.40483 33.2713 5.91903 33.5071C6.43324 33.7429 6.82955 34.0753 7.10795 34.5043C7.3892 34.9304 7.53125 35.429 7.53409 36H5.26705ZM11.7422 42.1193C11.032 42.1193 10.424 41.9787 9.91832 41.6974C9.41264 41.4134 9.02486 41.0185 8.75497 40.5128C8.48509 40.0043 8.35014 39.4148 8.35014 38.7443C8.35014 38.0739 8.48509 37.4858 8.75497 36.9801C9.02486 36.4716 9.41264 36.0767 9.91832 35.7955C10.424 35.5114 11.032 35.3693 11.7422 35.3693C12.3842 35.3693 12.9396 35.4858 13.4084 35.7188C13.88 35.9489 14.245 36.2756 14.5036 36.6989C14.7621 37.1193 14.8928 37.6136 14.8956 38.1818H12.7138C12.6825 37.8381 12.5831 37.5767 12.4155 37.3977C12.2507 37.2159 12.0376 37.125 11.7763 37.125C11.5717 37.125 11.3928 37.1847 11.2393 37.304C11.0859 37.4205 10.9666 37.598 10.8814 37.8366C10.7962 38.0724 10.7536 38.3693 10.7536 38.7273C10.7536 39.0852 10.7962 39.3835 10.8814 39.6222C10.9666 39.858 11.0859 40.0355 11.2393 40.1548C11.3928 40.2713 11.5717 40.3295 11.7763 40.3295C11.9496 40.3295 12.103 40.2898 12.2365 40.2102C12.37 40.1278 12.478 40.0085 12.5604 39.8523C12.6456 39.6932 12.6967 39.5 12.7138 39.2727H14.8956C14.8871 39.8494 14.755 40.3523 14.4993 40.7812C14.2436 41.2074 13.8814 41.5369 13.4126 41.7699C12.9467 42.0028 12.3899 42.1193 11.7422 42.1193ZM19.0195 42.1193C18.3093 42.1193 17.7013 41.9787 17.1957 41.6974C16.69 41.4134 16.3022 41.0185 16.0323 40.5128C15.7624 40.0043 15.6275 39.4148 15.6275 38.7443C15.6275 38.0739 15.7624 37.4858 16.0323 36.9801C16.3022 36.4716 16.69 36.0767 17.1957 35.7955C17.7013 35.5114 18.3093 35.3693 19.0195 35.3693C19.7298 35.3693 20.3377 35.5114 20.8434 35.7955C21.3491 36.0767 21.7369 36.4716 22.0067 36.9801C22.2766 37.4858 22.4116 38.0739 22.4116 38.7443C22.4116 39.4148 22.2766 40.0043 22.0067 40.5128C21.7369 41.0185 21.3491 41.4134 20.8434 41.6974C20.3377 41.9787 19.7298 42.1193 19.0195 42.1193ZM19.0366 40.3807C19.2354 40.3807 19.4073 40.3139 19.5522 40.1804C19.6971 40.0469 19.8093 39.8565 19.8888 39.6094C19.9684 39.3622 20.0082 39.0682 20.0082 38.7273C20.0082 38.3835 19.9684 38.0895 19.8888 37.8452C19.8093 37.598 19.6971 37.4077 19.5522 37.2741C19.4073 37.1406 19.2354 37.0739 19.0366 37.0739C18.8263 37.0739 18.646 37.1406 18.4954 37.2741C18.3448 37.4077 18.2298 37.598 18.1502 37.8452C18.0707 38.0895 18.0309 38.3835 18.0309 38.7273C18.0309 39.0682 18.0707 39.3622 18.1502 39.6094C18.2298 39.8565 18.3448 40.0469 18.4954 40.1804C18.646 40.3139 18.8263 40.3807 19.0366 40.3807ZM23.3661 42V35.4545H25.6502V36.6989H25.7184C25.8377 36.2386 26.0266 35.902 26.2852 35.6889C26.5465 35.4759 26.8519 35.3693 27.2013 35.3693C27.3036 35.3693 27.4045 35.3778 27.5039 35.3949C27.6062 35.4091 27.7042 35.4304 27.7979 35.4588V37.4659C27.6815 37.4261 27.538 37.3963 27.3675 37.3764C27.1971 37.3565 27.0508 37.3466 26.9286 37.3466C26.6985 37.3466 26.4911 37.3991 26.3065 37.5043C26.1246 37.6065 25.9812 37.7514 25.8761 37.9389C25.771 38.1236 25.7184 38.3409 25.7184 38.5909V42H23.3661ZM31.3306 42.1193C30.6317 42.1193 30.0295 41.9858 29.5238 41.7188C29.021 41.4489 28.6332 41.0625 28.3604 40.5597C28.0906 40.054 27.9556 39.4489 27.9556 38.7443C27.9556 38.0682 28.092 37.4773 28.3647 36.9716C28.6374 36.4659 29.0224 36.0724 29.5195 35.7912C30.0167 35.5099 30.6033 35.3693 31.2795 35.3693C31.7738 35.3693 32.2212 35.446 32.6218 35.5994C33.0224 35.7528 33.3647 35.9759 33.6488 36.2685C33.9329 36.5582 34.1516 36.9105 34.305 37.3253C34.4585 37.7401 34.5352 38.2074 34.5352 38.7273V39.2727H28.6886V37.9773H32.3704C32.3675 37.7898 32.3192 37.625 32.2255 37.483C32.1346 37.3381 32.011 37.2259 31.8548 37.1463C31.7013 37.0639 31.5266 37.0227 31.3306 37.0227C31.1403 37.0227 30.9656 37.0639 30.8065 37.1463C30.6474 37.2259 30.5195 37.3366 30.4229 37.4787C30.3292 37.6207 30.2795 37.7869 30.2738 37.9773V39.375C30.2738 39.5852 30.3178 39.7727 30.4059 39.9375C30.494 40.1023 30.6204 40.2315 30.7852 40.3253C30.9499 40.419 31.1488 40.4659 31.3817 40.4659C31.5437 40.4659 31.6914 40.4432 31.8249 40.3977C31.9613 40.3523 32.0778 40.2869 32.1744 40.2017C32.271 40.1136 32.342 40.0085 32.3874 39.8864H34.5352C34.4613 40.3409 34.2866 40.7358 34.011 41.071C33.7354 41.4034 33.3704 41.6619 32.9158 41.8466C32.4641 42.0284 31.9357 42.1193 31.3306 42.1193ZM41.478 37.5852H39.3132C39.3018 37.4517 39.255 37.3366 39.1726 37.2401C39.0902 37.1435 38.9837 37.0696 38.853 37.0185C38.7251 36.9645 38.5831 36.9375 38.4268 36.9375C38.2251 36.9375 38.0518 36.9744 37.907 37.0483C37.7621 37.1222 37.6911 37.2273 37.6939 37.3636C37.6911 37.4602 37.7322 37.5497 37.8175 37.6321C37.9055 37.7145 38.0746 37.7784 38.3246 37.8239L39.6541 38.0625C40.3246 38.1847 40.8232 38.3906 41.1499 38.6804C41.4794 38.9673 41.6456 39.3523 41.6484 39.8352C41.6456 40.3011 41.5064 40.706 41.2308 41.0497C40.9581 41.3906 40.5845 41.6548 40.1101 41.8423C39.6385 42.027 39.1001 42.1193 38.495 42.1193C37.495 42.1193 36.7124 41.9148 36.147 41.5057C35.5845 41.0966 35.2706 40.5568 35.2053 39.8864H37.5405C37.5717 40.0937 37.674 40.2543 37.8473 40.3679C38.0234 40.4787 38.245 40.5341 38.5121 40.5341C38.728 40.5341 38.9055 40.4972 39.0447 40.4233C39.1868 40.3494 39.2592 40.2443 39.2621 40.108C39.2592 39.983 39.1967 39.8835 39.0746 39.8097C38.9553 39.7358 38.7678 39.6761 38.5121 39.6307L37.353 39.4261C36.6854 39.3097 36.1854 39.0881 35.853 38.7614C35.5206 38.4347 35.3558 38.0142 35.3587 37.5C35.3558 37.0455 35.4751 36.6605 35.7166 36.3452C35.9609 36.027 36.3089 35.7855 36.7607 35.6207C37.2152 35.4531 37.7536 35.3693 38.3757 35.3693C39.3217 35.3693 40.0675 35.5653 40.6129 35.9574C41.1612 36.3494 41.4496 36.892 41.478 37.5852Z" fill="white"/>
</svg>
