<svg width="80" height="70" viewBox="0 0 80 70" fill="none" xmlns="http://www.w3.org/2000/svg">
<path d="M22.3422 69.8915C20.9336 69.8915 19.1993 68.8879 18.495 67.6729L1.02826 37.4143C0.323955 36.1906 0.323955 34.1921 1.02826 32.9684L18.495 2.71856C19.1993 1.49483 20.9336 0.5 22.3422 0.5H57.2757C58.6843 0.5 60.4186 1.50363 61.1229 2.71856L78.5897 32.9684C79.294 34.1921 79.294 36.1906 78.5897 37.4143L61.1229 67.6641C60.4186 68.8879 58.6843 69.8827 57.2757 69.8827H22.3422V69.8915Z" fill="#FF5959"/>
<path d="M23.7157 63.0597H55.8935L71.9868 35.1869L55.8935 7.32289H23.7157L7.63113 35.1957L23.7157 63.0597ZM56.6418 65.6304H22.9761C22.5183 65.6304 22.0958 65.3839 21.8669 64.9877L5.03401 35.8384C4.80511 35.4422 4.80511 34.9492 5.03401 34.553L21.8669 5.40366C22.0958 5.00749 22.5183 4.76099 22.9761 4.76099H56.6418C57.0996 4.76099 57.5222 5.00749 57.7511 5.40366L74.584 34.553C74.8129 34.9492 74.8129 35.4422 74.584 35.8384L57.7511 64.9877C57.5222 65.3839 57.0996 65.6304 56.6418 65.6304Z" fill="white"/>
<path d="M18.0548 39.2632C17.8171 39.0959 17.6586 38.8142 17.6586 38.4796C17.6586 37.9426 18.09 37.5288 18.627 37.5288C18.9088 37.5288 19.0937 37.6081 19.2257 37.7137C20.1941 38.4796 21.2242 38.911 22.4919 38.911C23.7597 38.911 24.5608 38.3124 24.5608 37.4408V37.4056C24.5608 36.5692 24.0942 36.1202 21.9285 35.6184C19.4458 35.0197 18.046 34.2802 18.046 32.1321V32.0969C18.046 30.0984 19.7099 28.7074 22.0341 28.7074C23.5043 28.7074 24.6841 29.0948 25.7405 29.7903C25.9782 29.9224 26.1895 30.2041 26.1895 30.609C26.1895 31.1461 25.7581 31.5599 25.2211 31.5599C25.0186 31.5599 24.8513 31.507 24.6841 31.4102C23.7861 30.8291 22.9145 30.5298 21.9989 30.5298C20.8016 30.5298 20.0973 31.1461 20.0973 31.912V31.9472C20.0973 32.8452 20.6343 33.2502 22.8793 33.7784C25.3443 34.3771 26.6121 35.2663 26.6121 37.1943V37.2295C26.6121 39.4128 24.8953 40.7158 22.4391 40.7158C20.8544 40.7334 19.349 40.2316 18.0548 39.2632ZM31.6479 30.7939H28.813C28.276 30.7939 27.8622 30.3625 27.8622 29.8431C27.8622 29.3237 28.276 28.8923 28.813 28.8923H36.5604C37.0798 28.8923 37.4936 29.3237 37.4936 29.8431C37.4936 30.3625 37.0798 30.7939 36.5604 30.7939H33.7079V39.6329C33.7079 40.1964 33.2413 40.6542 32.6779 40.6542C32.1145 40.6542 31.6479 40.2052 31.6479 39.6329V30.7939ZM48.4895 34.7644V34.7292C48.4895 32.4578 46.8344 30.5738 44.519 30.5738C42.2036 30.5738 40.5837 32.4226 40.5837 34.694V34.7292C40.5837 37.0006 42.2388 38.867 44.5542 38.867C46.8696 38.867 48.4895 37.0358 48.4895 34.7644ZM38.4356 34.7644V34.7292C38.4356 31.4454 40.9711 28.6898 44.5542 28.6898C48.1374 28.6898 50.6376 31.4102 50.6376 34.694V34.7292C50.6376 38.013 48.1021 40.7686 44.519 40.7686C40.9359 40.7686 38.4356 38.0483 38.4356 34.7644ZM57.5574 34.9669C59.1069 34.9669 60.0753 34.0953 60.0753 32.8804V32.8452C60.0753 31.4806 59.0893 30.7587 57.5574 30.7587H55.1716V34.9581L57.5574 34.9669ZM53.1203 29.9312C53.1203 29.3501 53.5693 28.9011 54.1503 28.9011H57.7159C60.4539 28.9011 62.153 30.4506 62.153 32.8012V32.8364C62.153 35.4511 60.0489 36.8245 57.487 36.8245H55.1716V39.6417C55.1716 40.2052 54.7226 40.663 54.1503 40.663C53.5693 40.663 53.1203 40.214 53.1203 39.6417V29.9312Z" fill="white"/>
</svg>
